<svg xmlns="http://www.w3.org/2000/svg" width="484" height="144" viewBox="0 0 484 144">
  <g id="Group_2687" data-name="Group 2687" transform="translate(-11818 -2925)">
    <path id="Path_2543" data-name="Path 2543" d="M467.688,144H17.258A17.306,17.306,0,0,1,0,126.949V17.309A17.53,17.53,0,0,1,17.258,0h450.43C477.039,0,484,7.953,484,17.309v109.64C484,136.3,476.8,144,467.449,144h.239" transform="translate(11818 2925)" fill="#201f66"/>
    <path id="Path_2545" data-name="Path 2545" d="M108.441,71.367c-.105-11.57,9.473-17.2,9.911-17.461a21.311,21.311,0,0,0-16.786-9.078c-7.062-.738-13.91,4.227-17.507,4.227-3.668,0-9.211-4.152-15.176-4.027A22.347,22.347,0,0,0,50.07,56.5C41.934,70.582,48,91.277,55.793,102.66c3.9,5.574,8.453,11.8,14.418,11.582,5.832-.242,8.012-3.719,15.055-3.719,6.973,0,9.02,3.719,15.1,3.579,6.262-.1,10.2-5.6,13.965-11.227a46.183,46.183,0,0,0,6.387-13.008,20.1,20.1,0,0,1-12.278-18.5" transform="translate(11818 2925)" fill="#fff"/>
    <path id="Path_2546" data-name="Path 2546" d="M96.953,37.344a20.506,20.506,0,0,0,4.688-14.684c-4.543.2-10.223,3.141-13.493,6.984-2.891,3.379-5.477,8.922-4.809,14.137,5.1.379,10.336-2.574,13.613-6.437" transform="translate(11818 2925)" fill="#fff"/>
    <path id="Path_2547" data-name="Path 2547" d="M178.9,93.523l-4.039-12.477q-.638-1.91-2.41-9h-.144q-.7,3.053-2.266,9l-3.969,12.477Zm13.965,19.918h-8.152L180.25,99.406H164.727l-4.254,14.035h-7.938l15.379-47.773h9.5l15.453,47.773" transform="translate(11818 2925)" fill="#fff"/>
    <path id="Path_2548" data-name="Path 2548" d="M224.621,96.074a14.216,14.216,0,0,0-2.269-8.293,7.843,7.843,0,0,0-6.664-3.4,7.965,7.965,0,0,0-5.137,1.879,8.714,8.714,0,0,0-3.012,4.93,9.938,9.938,0,0,0-.355,2.336v5.742a9.2,9.2,0,0,0,2.3,6.343,7.637,7.637,0,0,0,5.989,2.59,7.843,7.843,0,0,0,6.734-3.332A14.687,14.687,0,0,0,224.621,96.074Zm7.8-.281q0,8.789-4.75,13.891a13.883,13.883,0,0,1-10.563,4.539q-6.8,0-9.781-4.891h-.14v18.145h-7.657V90.336q0-5.525-.281-11.344h6.731l.425,5.461h.145q3.827-6.17,11.625-6.168A12.8,12.8,0,0,1,228.344,83.1q4.073,4.828,4.074,12.691" transform="translate(11818 2925)" fill="#fff"/>
    <path id="Path_2549" data-name="Path 2549" d="M264.242,96.074a14.215,14.215,0,0,0-2.269-8.293,7.838,7.838,0,0,0-6.664-3.4,7.957,7.957,0,0,0-5.137,1.879,8.713,8.713,0,0,0-3.012,4.93,10.115,10.115,0,0,0-.351,2.336v5.742a9.208,9.208,0,0,0,2.3,6.343,7.65,7.65,0,0,0,6,2.59,7.839,7.839,0,0,0,6.73-3.332A14.68,14.68,0,0,0,264.242,96.074Zm7.8-.281q0,8.789-4.754,13.891a13.868,13.868,0,0,1-10.558,4.539q-6.8,0-9.782-4.891h-.136v18.145h-7.657V90.336q0-5.525-.285-11.344H245.6l.425,5.461h.141q3.826-6.17,11.625-6.168A12.8,12.8,0,0,1,267.965,83.1q4.072,4.828,4.074,12.691" transform="translate(11818 2925)" fill="#fff"/>
    <path id="Path_2550" data-name="Path 2550" d="M316.34,100.047a12.738,12.738,0,0,1-4.242,9.922q-4.671,4.184-13.012,4.183-7.711,0-12.387-2.98l1.778-6.379a20.944,20.944,0,0,0,11.062,3.051,10.458,10.458,0,0,0,6.738-1.953,6.375,6.375,0,0,0,2.407-5.219,6.656,6.656,0,0,0-1.985-4.9,18.537,18.537,0,0,0-6.59-3.7q-12.551-4.682-12.546-13.7a12.124,12.124,0,0,1,4.4-9.656q4.383-3.762,11.7-3.766a23.175,23.175,0,0,1,10.84,2.27l-1.914,6.238a18.8,18.8,0,0,0-9.144-2.2,9.226,9.226,0,0,0-6.3,1.988,5.658,5.658,0,0,0-1.914,4.324,5.828,5.828,0,0,0,2.191,4.676,24.761,24.761,0,0,0,6.949,3.688q6.165,2.484,9.075,5.809a12.2,12.2,0,0,1,2.9,8.3" transform="translate(11818 2925)" fill="#fff"/>
    <path id="Path_2551" data-name="Path 2551" d="M341.645,84.734h-8.434v16.731q0,6.375,4.465,6.379a13.728,13.728,0,0,0,3.4-.356l.207,5.813a17.232,17.232,0,0,1-5.949.851,9.186,9.186,0,0,1-7.09-2.765c-1.7-1.844-2.555-4.938-2.555-9.285V84.734h-5.027V78.992h5.027V72.684l7.52-2.266v8.574h8.434v5.742" transform="translate(11818 2925)" fill="#fff"/>
    <path id="Path_2552" data-name="Path 2552" d="M371.766,96.184a15.542,15.542,0,0,0-2.051-8.176,7.571,7.571,0,0,0-6.875-4.121,7.675,7.675,0,0,0-7.02,4.121,15.824,15.824,0,0,0-2.05,8.32,15.527,15.527,0,0,0,2.05,8.172,7.731,7.731,0,0,0,6.95,4.121,7.651,7.651,0,0,0,6.871-4.191A15.519,15.519,0,0,0,371.766,96.184Zm7.945-.25q0,7.94-4.535,13.043-4.758,5.25-12.621,5.246-7.588,0-12.082-5.032a18.332,18.332,0,0,1-4.5-12.687q0-8.01,4.64-13.113t12.508-5.105a15.738,15.738,0,0,1,12.2,5.035q4.395,4.893,4.395,12.613" transform="translate(11818 2925)" fill="#fff"/>
    <path id="Path_2553" data-name="Path 2553" d="M404.59,85.727a13.253,13.253,0,0,0-2.414-.211,7.23,7.23,0,0,0-6.238,3.051,11.435,11.435,0,0,0-1.915,6.8v18.074h-7.652l.07-23.6q0-5.959-.285-10.848h6.668l.278,6.594h.211a11.772,11.772,0,0,1,3.828-5.457,9.271,9.271,0,0,1,5.535-1.844,12.3,12.3,0,0,1,1.914.141v7.3" transform="translate(11818 2925)" fill="#fff"/>
    <path id="Path_2554" data-name="Path 2554" d="M431.52,92.6a10.425,10.425,0,0,0-1.485-5.883,6.694,6.694,0,0,0-6.1-3.187,7.258,7.258,0,0,0-6.094,3.121,11.394,11.394,0,0,0-2.266,5.949Zm7.3,1.988a18.106,18.106,0,0,1-.281,3.469H415.574q.141,5.11,3.332,7.8a11.365,11.365,0,0,0,7.508,2.411,25.449,25.449,0,0,0,9.293-1.633l1.2,5.316a28.8,28.8,0,0,1-11.551,2.129q-8.009,0-12.585-4.719T408.2,96.711a19.746,19.746,0,0,1,4.254-12.969A14.672,14.672,0,0,1,424.5,78.215q7.441,0,11.273,5.527A18.633,18.633,0,0,1,438.82,94.59" transform="translate(11818 2925)" fill="#fff"/>
    <path id="Path_2555" data-name="Path 2555" d="M172.4,36.383a8.577,8.577,0,0,0-2.175-6.3q-2.181-2.2-6.356-2.2a15.983,15.983,0,0,0-3.031.246V45.68a20.353,20.353,0,0,0,2.543.1,8.9,8.9,0,0,0,6.668-2.4Q172.4,40.977,172.4,36.383Zm3.969-.105q0,6.34-3.8,9.543-3.516,2.953-9.992,2.957a47.066,47.066,0,0,1-5.5-.277V25.41a40.519,40.519,0,0,1,6.481-.484q6.157,0,9.3,2.68,3.51,3.029,3.516,8.672" transform="translate(11818 2925)" fill="#fff"/>
    <path id="Path_2556" data-name="Path 2556" d="M193.5,40.09a7.651,7.651,0,0,0-1.008-4.016,3.716,3.716,0,0,0-3.379-2.027,3.775,3.775,0,0,0-3.449,2.027,7.79,7.79,0,0,0-1.008,4.082,7.656,7.656,0,0,0,1.008,4.02,3.847,3.847,0,0,0,6.793-.035A7.637,7.637,0,0,0,193.5,40.09Zm3.9-.121a9.277,9.277,0,0,1-2.23,6.406,7.95,7.95,0,0,1-6.195,2.578,7.576,7.576,0,0,1-5.942-2.473,9.011,9.011,0,0,1-2.207-6.234A9.2,9.2,0,0,1,183.1,33.8a7.908,7.908,0,0,1,6.149-2.508,7.733,7.733,0,0,1,5.988,2.473,8.929,8.929,0,0,1,2.16,6.2" transform="translate(11818 2925)" fill="#fff"/>
    <path id="Path_2557" data-name="Path 2557" d="M225.6,31.645,220.313,48.57h-3.446l-2.2-7.352a53.916,53.916,0,0,1-1.359-5.465h-.067a39.591,39.591,0,0,1-1.359,5.465l-2.332,7.352H206.07l-4.98-16.926h3.867l1.914,8.043q.7,2.859,1.152,5.434h.067q.416-2.121,1.394-5.4l2.4-8.078h3.062l2.3,7.906q.839,2.889,1.355,5.57h.106a53.535,53.535,0,0,1,1.148-5.57l2.055-7.906H225.6" transform="translate(11818 2925)" fill="#fff"/>
    <path id="Path_2558" data-name="Path 2558" d="M245.109,48.57h-3.761V38.879q0-4.482-3.41-4.484a3.4,3.4,0,0,0-2.719,1.234,4.366,4.366,0,0,0-1.043,2.9V48.57h-3.762V36.484q0-2.227-.137-4.84h3.305l.176,2.645h.105a5.414,5.414,0,0,1,1.95-2.043,6.344,6.344,0,0,1,3.41-.949,5.4,5.4,0,0,1,3.937,1.531,7.445,7.445,0,0,1,1.949,5.606V48.57" transform="translate(11818 2925)" fill="#fff"/>
    <path id="Path_2559" data-name="Path 2559" d="M255.484,48.57h-3.757V23.879h3.757V48.57" transform="translate(11818 2925)" fill="#fff"/>
    <path id="Path_2560" data-name="Path 2560" d="M273.73,40.09a7.615,7.615,0,0,0-1.011-4.016,3.709,3.709,0,0,0-3.371-2.027,3.765,3.765,0,0,0-3.45,2.027,7.8,7.8,0,0,0-1.011,4.082,7.666,7.666,0,0,0,1.011,4.02,3.841,3.841,0,0,0,6.786-.035A7.566,7.566,0,0,0,273.73,40.09Zm3.907-.121a9.292,9.292,0,0,1-2.231,6.406,7.963,7.963,0,0,1-6.2,2.578,7.56,7.56,0,0,1-5.937-2.473,9.009,9.009,0,0,1-2.211-6.234A9.184,9.184,0,0,1,263.34,33.8a7.887,7.887,0,0,1,6.14-2.508,7.751,7.751,0,0,1,6,2.473,8.934,8.934,0,0,1,2.16,6.2" transform="translate(11818 2925)" fill="#fff"/>
    <path id="Path_2561" data-name="Path 2561" d="M291.938,42.754V40.141q-6.223-.105-6.223,3.414a2.545,2.545,0,0,0,.719,1.984,2.63,2.63,0,0,0,1.839.66,3.751,3.751,0,0,0,2.3-.781,3.193,3.193,0,0,0,1.3-2A2.956,2.956,0,0,0,291.938,42.754Zm3.906,5.816h-3.379l-.281-1.953h-.106a5.785,5.785,0,0,1-4.941,2.336,5.091,5.091,0,0,1-3.864-1.535,4.8,4.8,0,0,1-1.324-3.445,5.265,5.265,0,0,1,2.594-4.738,13.5,13.5,0,0,1,7.3-1.6V37.32q0-3.34-3.512-3.344a7.841,7.841,0,0,0-4.41,1.254l-.766-2.473a10.85,10.85,0,0,1,5.809-1.461q6.633,0,6.637,7v6.234a26.663,26.663,0,0,0,.246,4.039" transform="translate(11818 2925)" fill="#fff"/>
    <path id="Path_2562" data-name="Path 2562" d="M313.324,41.43v-2.82a5.4,5.4,0,0,0-.105-1.184,4.27,4.27,0,0,0-1.36-2.281,3.7,3.7,0,0,0-2.515-.922,3.866,3.866,0,0,0-3.313,1.672,7.18,7.18,0,0,0-1.207,4.281,6.674,6.674,0,0,0,1.16,4.074,3.872,3.872,0,0,0,3.289,1.672,3.635,3.635,0,0,0,2.973-1.391A4.657,4.657,0,0,0,313.324,41.43Zm3.9,7.141h-3.336l-.176-2.719h-.106a5.625,5.625,0,0,1-5.433,3.1,6.363,6.363,0,0,1-5.082-2.4,9.354,9.354,0,0,1-2.024-6.234,9.808,9.808,0,0,1,2.2-6.652,6.749,6.749,0,0,1,5.226-2.367c2.27,0,3.864.766,4.766,2.3h.07V23.879h3.766V44.008q0,2.473.133,4.563" transform="translate(11818 2925)" fill="#fff"/>
    <path id="Path_2563" data-name="Path 2563" d="M345.5,40.09a7.651,7.651,0,0,0-1.008-4.016,3.721,3.721,0,0,0-3.379-2.027,3.785,3.785,0,0,0-3.453,2.027,7.79,7.79,0,0,0-1.008,4.082,7.656,7.656,0,0,0,1.008,4.02,3.85,3.85,0,0,0,6.8-.035A7.637,7.637,0,0,0,345.5,40.09Zm3.9-.121a9.293,9.293,0,0,1-2.226,6.406,7.959,7.959,0,0,1-6.2,2.578,7.588,7.588,0,0,1-5.942-2.473,9.011,9.011,0,0,1-2.207-6.234A9.2,9.2,0,0,1,335.1,33.8a7.907,7.907,0,0,1,6.152-2.508,7.718,7.718,0,0,1,5.984,2.473,8.929,8.929,0,0,1,2.16,6.2" transform="translate(11818 2925)" fill="#fff"/>
    <path id="Path_2564" data-name="Path 2564" d="M369.629,48.57h-3.758V38.879q0-4.482-3.418-4.484a3.389,3.389,0,0,0-2.711,1.234,4.354,4.354,0,0,0-1.047,2.9V48.57h-3.761V36.484q0-2.227-.133-4.84h3.3l.175,2.645h.106a5.473,5.473,0,0,1,1.949-2.043,6.348,6.348,0,0,1,3.414-.949,5.41,5.41,0,0,1,3.934,1.531,7.433,7.433,0,0,1,1.949,5.606V48.57" transform="translate(11818 2925)" fill="#fff"/>
    <path id="Path_2565" data-name="Path 2565" d="M394.945,34.465H390.8v8.219c0,2.09.734,3.137,2.191,3.137a6.734,6.734,0,0,0,1.68-.176l.1,2.855a8.535,8.535,0,0,1-2.925.418,4.485,4.485,0,0,1-3.477-1.359c-.844-.906-1.258-2.426-1.258-4.562V34.465h-2.472v-2.82h2.472v-3.1l3.692-1.113v4.211h4.14v2.82" transform="translate(11818 2925)" fill="#fff"/>
    <path id="Path_2566" data-name="Path 2566" d="M414.867,48.57H411.1V38.945q0-4.553-3.407-4.551a3.593,3.593,0,0,0-3.59,2.641,4.692,4.692,0,0,0-.175,1.355V48.57h-3.758V23.879h3.758v10.2H404a5.694,5.694,0,0,1,5.082-2.781,5.257,5.257,0,0,1,3.871,1.531,7.7,7.7,0,0,1,1.914,5.676V48.57" transform="translate(11818 2925)" fill="#fff"/>
    <path id="Path_2567" data-name="Path 2567" d="M431.82,38.332a5.072,5.072,0,0,0-.726-2.891,3.282,3.282,0,0,0-3-1.566,3.565,3.565,0,0,0-2.993,1.531,5.679,5.679,0,0,0-1.117,2.926Zm3.59.973a8.844,8.844,0,0,1-.14,1.707H423.988a4.947,4.947,0,0,0,1.633,3.832,5.627,5.627,0,0,0,3.7,1.184,12.48,12.48,0,0,0,4.563-.8l.59,2.613a14.193,14.193,0,0,1-5.68,1.043,8.213,8.213,0,0,1-6.18-2.316,8.535,8.535,0,0,1-2.242-6.215,9.7,9.7,0,0,1,2.09-6.375,7.206,7.206,0,0,1,5.918-2.715,6.291,6.291,0,0,1,5.531,2.715,9.094,9.094,0,0,1,1.5,5.328" transform="translate(11818 2925)" fill="#fff"/>
  </g>
</svg>
