<svg xmlns="http://www.w3.org/2000/svg" width="159" height="40" viewBox="0 0 159 40">
    <defs>
        <style>
            .prefix__cls-1{fill:#1a1e28}.prefix__cls-2{fill:#161615}
        </style>
    </defs>
    <g id="prefix__Groupe_1" data-name="Groupe 1" transform="translate(-876 -498)">
        <g id="prefix__Groupe_5" data-name="Groupe 5" transform="translate(664.605 -178.487)">
            <g id="prefix__Groupe_4" data-name="Groupe 4">
                <g id="prefix__Groupe_2" data-name="Groupe 2">
                    <g id="prefix__Groupe_1-2" data-name="Groupe 1">
                        <path id="prefix__Tracé_1" d="M222.4 685.487h5.2v7.176a6.741 6.741 0 0 1 5.045-1.975c3.635 0 8.555 2.6 8.555 9.182 0 6.267-4.356 9.4-8.774 9.4a5.631 5.631 0 0 1-4.982-2.444h-.063v1.849H222.4zm9.243 18.926a4.436 4.436 0 0 0 .094-8.868 4.28 4.28 0 0 0-4.324 4.387 4.233 4.233 0 0 0 4.225 4.481z" class="prefix__cls-1" data-name="Tracé 1"/>
                    </g>
                </g>
                <g id="prefix__Groupe_3" data-name="Groupe 3">
                    <path id="prefix__Tracé_2" d="M246.45 707.049a2.189 2.189 0 1 1-2.175-2.2 2.2 2.2 0 0 1 2.175 2.2zm-3.9 0a1.715 1.715 0 1 0 1.722-1.757 1.742 1.742 0 0 0-1.725 1.757zm1.808-1.242c.47 0 .893.2.893.687a.606.606 0 0 1-.4.589c.178.075.326.2.349.567a1.936 1.936 0 0 0 .075.595h-.59a3.529 3.529 0 0 1-.08-.584c-.017-.137-.051-.354-.435-.354h-.24v.938h-.607v-2.438zm-.423.418v.687h.292c.126 0 .418 0 .418-.372 0-.309-.258-.315-.384-.315z" class="prefix__cls-1" data-name="Tracé 2"/>
                </g>
            </g>
        </g>
        <path id="prefix__Tracé_3" d="M252.284 691.108h5a9.428 9.428 0 0 1 5.1 1.053 3.717 3.717 0 0 1 1.574 3.329 3.843 3.843 0 0 1-.877 2.6 4.225 4.225 0 0 1-2.56 1.326v.121q4.031.69 4.03 4.237a4.548 4.548 0 0 1-1.6 3.7 6.818 6.818 0 0 1-4.484 1.332h-6.174zm2.058 7.578h3.389a5.514 5.514 0 0 0 3.135-.684 2.639 2.639 0 0 0 .957-2.306 2.334 2.334 0 0 0-1.066-2.149 6.663 6.663 0 0 0-3.389-.66h-3.026zm0 1.743v6.622h3.692a5.251 5.251 0 0 0 3.226-.83 3.06 3.06 0 0 0 1.083-2.6 2.753 2.753 0 0 0-1.107-2.422 5.934 5.934 0 0 0-3.372-.774z" class="prefix__cls-2" data-name="Tracé 3" transform="translate(664.605 -178.487)"/>
        <path id="prefix__Tracé_4" d="M276.9 708.806l-.4-1.889h-.1a5.58 5.58 0 0 1-1.979 1.689 6.026 6.026 0 0 1-2.463.442 4.429 4.429 0 0 1-3.093-1.017 3.707 3.707 0 0 1-1.12-2.893q0-4.02 6.428-4.213l2.251-.072v-.823a3.363 3.363 0 0 0-.672-2.306 2.759 2.759 0 0 0-2.148-.745 8.765 8.765 0 0 0-3.753 1.016l-.617-1.537a9.52 9.52 0 0 1 2.148-.835 9.3 9.3 0 0 1 2.343-.3 5.056 5.056 0 0 1 3.517 1.052 4.4 4.4 0 0 1 1.143 3.378v9.055zm-4.54-1.416a4.081 4.081 0 0 0 2.948-1.029 3.808 3.808 0 0 0 1.071-2.881v-1.2l-2.009.084a7.3 7.3 0 0 0-3.457.746 2.244 2.244 0 0 0-1.059 2.051 2.07 2.07 0 0 0 .66 1.659 2.74 2.74 0 0 0 1.842.57z" class="prefix__cls-2" data-name="Tracé 4" transform="translate(664.605 -178.487)"/>
        <path id="prefix__Tracé_5" d="M288.258 709.048a5.663 5.663 0 0 1-4.461-1.773 7.3 7.3 0 0 1-1.58-5.018 7.518 7.518 0 0 1 1.6-5.144 5.776 5.776 0 0 1 4.57-1.817 9.09 9.09 0 0 1 1.913.206 6.338 6.338 0 0 1 1.5.485l-.618 1.707a9.381 9.381 0 0 0-1.452-.443 6.5 6.5 0 0 0-1.392-.176q-4.044 0-4.044 5.158a6.141 6.141 0 0 0 .987 3.753 3.434 3.434 0 0 0 2.923 1.307 8.924 8.924 0 0 0 3.4-.715v1.78a7.252 7.252 0 0 1-3.346.69z" class="prefix__cls-2" data-name="Tracé 5" transform="translate(664.605 -178.487)"/>
        <path id="prefix__Tracé_6" d="M297.175 702.015a23.736 23.736 0 0 1 1.586-1.937l4.286-4.54h2.385l-5.375 5.654 5.75 7.614h-2.433l-4.686-6.271-1.513 1.308v4.963h-1.985V689.97h1.985v9.987q0 .666-.1 2.058z" class="prefix__cls-2" data-name="Tracé 6" transform="translate(664.605 -178.487)"/>
        <path id="prefix__Tracé_7" d="M317.8 705.187a3.323 3.323 0 0 1-1.38 2.856 6.485 6.485 0 0 1-3.874 1 8.418 8.418 0 0 1-4.115-.835v-1.864a10.009 10.009 0 0 0 2.051.763 8.6 8.6 0 0 0 2.113.278 4.79 4.79 0 0 0 2.421-.5 1.729 1.729 0 0 0 .175-2.856 10.549 10.549 0 0 0-2.621-1.3 14.278 14.278 0 0 1-2.632-1.2 3.6 3.6 0 0 1-1.163-1.168 3.063 3.063 0 0 1-.38-1.562 2.974 2.974 0 0 1 1.319-2.56 6.149 6.149 0 0 1 3.619-.939 10.592 10.592 0 0 1 4.189.872l-.714 1.634a9.611 9.611 0 0 0-3.62-.823 4.161 4.161 0 0 0-2.155.448 1.385 1.385 0 0 0-.726 1.234 1.509 1.509 0 0 0 .272.909 2.689 2.689 0 0 0 .878.713 19.413 19.413 0 0 0 2.324.981 8.685 8.685 0 0 1 3.19 1.731 3.058 3.058 0 0 1 .829 2.188z" class="prefix__cls-2" data-name="Tracé 7" transform="translate(664.605 -178.487)"/>
        <path id="prefix__Tracé_8" d="M326.363 707.39a6.5 6.5 0 0 0 1.03-.079 6.931 6.931 0 0 0 .786-.163v1.537a3.717 3.717 0 0 1-.962.261 7.293 7.293 0 0 1-1.144.1q-3.849 0-3.849-4.056v-7.89h-1.9v-.968l1.9-.836.846-2.832h1.162v3.074h3.85v1.562h-3.85v7.808a2.681 2.681 0 0 0 .57 1.84 1.977 1.977 0 0 0 1.561.642z" class="prefix__cls-2" data-name="Tracé 8" transform="translate(664.605 -178.487)"/>
        <path id="prefix__Tracé_9" d="M339.937 708.806l-.4-1.889h-.1a5.588 5.588 0 0 1-1.979 1.689 6.031 6.031 0 0 1-2.464.442 4.431 4.431 0 0 1-3.093-1.017 3.71 3.71 0 0 1-1.12-2.893q0-4.02 6.429-4.213l2.251-.072v-.823a3.363 3.363 0 0 0-.672-2.306 2.759 2.759 0 0 0-2.148-.745 8.765 8.765 0 0 0-3.753 1.016l-.618-1.537a9.547 9.547 0 0 1 2.149-.835 9.3 9.3 0 0 1 2.343-.3 5.051 5.051 0 0 1 3.516 1.052 4.4 4.4 0 0 1 1.144 3.378v9.055zm-4.537-1.416a4.083 4.083 0 0 0 2.949-1.029 3.808 3.808 0 0 0 1.071-2.881v-1.2l-2.01.084a7.3 7.3 0 0 0-3.456.746 2.244 2.244 0 0 0-1.059 2.051 2.066 2.066 0 0 0 .66 1.659 2.735 2.735 0 0 0 1.845.57z" class="prefix__cls-2" data-name="Tracé 9" transform="translate(664.605 -178.487)"/>
        <path id="prefix__Tracé_10" d="M356.791 695.538v1.272l-2.457.29a4.328 4.328 0 0 1 .871 2.651 3.923 3.923 0 0 1-1.331 3.112 5.377 5.377 0 0 1-3.656 1.162 6.045 6.045 0 0 1-1.114-.1 1.979 1.979 0 0 0-1.283 1.707.869.869 0 0 0 .448.806 3.281 3.281 0 0 0 1.538.259h2.347a5.26 5.26 0 0 1 3.312.909 3.154 3.154 0 0 1 1.155 2.638 3.769 3.769 0 0 1-1.767 3.36 9.465 9.465 0 0 1-5.157 1.156 7.036 7.036 0 0 1-4.012-.969 3.124 3.124 0 0 1-1.411-2.735 3.07 3.07 0 0 1 .775-2.095 3.945 3.945 0 0 1 2.179-1.2 2.107 2.107 0 0 1-.854-.714 1.9 1.9 0 0 1-.345-1.126 2.132 2.132 0 0 1 .388-1.271 4.058 4.058 0 0 1 1.223-1.053 3.579 3.579 0 0 1-1.677-1.441 4.232 4.232 0 0 1-.648-2.324 4.294 4.294 0 0 1 1.307-3.359 5.34 5.34 0 0 1 3.7-1.181 6.749 6.749 0 0 1 1.876.242zm-10.58 15.495a1.8 1.8 0 0 0 .908 1.634 5.016 5.016 0 0 0 2.6.557 7.266 7.266 0 0 0 3.746-.756 2.317 2.317 0 0 0 1.217-2.052 1.623 1.623 0 0 0-.666-1.495 5.178 5.178 0 0 0-2.506-.418h-2.41a3.175 3.175 0 0 0-2.13.653 2.337 2.337 0 0 0-.759 1.877zm1.09-11.246a2.7 2.7 0 0 0 .786 2.107 3.141 3.141 0 0 0 2.191.714q2.941 0 2.942-2.857 0-2.989-2.978-2.99a2.946 2.946 0 0 0-2.179.763 3.07 3.07 0 0 0-.763 2.263z" class="prefix__cls-2" data-name="Tracé 10" transform="translate(664.605 -178.487)"/>
        <path id="prefix__Tracé_11" d="M365.221 709.048a6.1 6.1 0 0 1-4.643-1.792 6.932 6.932 0 0 1-1.7-4.975 7.693 7.693 0 0 1 1.579-5.1 5.25 5.25 0 0 1 4.243-1.881 5 5 0 0 1 3.946 1.641 6.285 6.285 0 0 1 1.454 4.327v1.271h-9.14a5.257 5.257 0 0 0 1.18 3.547 4.083 4.083 0 0 0 3.154 1.211 10.686 10.686 0 0 0 4.236-.9v1.792a10.67 10.67 0 0 1-2.015.659 11.269 11.269 0 0 1-2.294.2zm-.545-12.069a3.282 3.282 0 0 0-2.548 1.041 4.8 4.8 0 0 0-1.12 2.881h6.936a4.421 4.421 0 0 0-.846-2.911 2.984 2.984 0 0 0-2.422-1.011z" class="prefix__cls-2" data-name="Tracé 11" transform="translate(664.605 -178.487)"/>
        <path id="prefix__Rectangle_1" d="M0 0H159V40H0z" data-name="Rectangle 1" transform="translate(876 498)" style="fill:none"/>
    </g>
</svg>
