<svg id="msp-educate-full-logo" xmlns="http://www.w3.org/2000/svg" width="184.259" height="32.347" viewBox="0 0 184.259 32.347">
  <path id="Path_2570" data-name="Path 2570" d="M579.031,397.288V381.161H584.6l2.846,11.762,2.845-11.762h5.573v16.127H592.6V384.812h-.357l-3.154,11.764h-3.272l-3.154-11.764H582.3v12.475Z" transform="translate(-538.625 -373.172)" fill="#30dd92"/>
  <path id="Path_2571" data-name="Path 2571" d="M598.53,383.8q-2.586,0-2.586,1.708a1.3,1.3,0,0,0,.64,1.163,16.759,16.759,0,0,0,3,1.162,8.3,8.3,0,0,1,3.309,1.719,4.059,4.059,0,0,1,.947,2.953,4.75,4.75,0,0,1-1.541,3.843,6.03,6.03,0,0,1-4.031,1.3,22.43,22.43,0,0,1-4.53-.569l-.854-.165.332-2.539a39.483,39.483,0,0,0,4.862.427q2.513,0,2.513-2.087a1.389,1.389,0,0,0-.58-1.185,8.233,8.233,0,0,0-2.312-.926,9.411,9.411,0,0,1-3.878-1.862,3.955,3.955,0,0,1-1.126-3,4.353,4.353,0,0,1,1.471-3.6,6.242,6.242,0,0,1,4.031-1.186,26.817,26.817,0,0,1,4.459.473l.854.165-.262,2.586Q599.9,383.8,598.53,383.8Z" transform="translate(-532.769 -373.247)" fill="#30dd92"/>
  <path id="Path_2572" data-name="Path 2572" d="M608.089,392.592h-2.655v4.7h-3.273V381.161h5.928q5.739,0,5.74,5.6a5.967,5.967,0,0,1-1.46,4.328A5.691,5.691,0,0,1,608.089,392.592Zm-2.655-2.8h2.632q2.442,0,2.442-3.035a3.146,3.146,0,0,0-.594-2.146,2.374,2.374,0,0,0-1.849-.653h-2.632Z" transform="translate(-528.406 -373.172)" fill="#30dd92"/>
  <path id="Path_2573" data-name="Path 2573" d="M615.143,397.381V380.9h9.889v1.327h-8.418v6.121h7v1.3h-7v6.429h8.418v1.3Z" transform="translate(-523.791 -373.266)" fill="#fc5a69" stroke="#fc5a69" stroke-width="1" style="mix-blend-mode: darken;isolation: isolate"/>
  <path id="Path_2574" data-name="Path 2574" d="M630.1,397.381h-6V380.9h6q5.857,0,5.858,8.017Q635.958,397.381,630.1,397.381Zm4.34-8.466q0-6.691-4.34-6.69h-4.528v13.852H630.1Q634.441,396.077,634.44,388.915Z" transform="translate(-519.607 -373.266)" fill="#fc5a69" stroke="#fc5a69" stroke-width="1"/>
  <path id="Path_2575" data-name="Path 2575" d="M636.08,392.542q0,3.747,4.1,3.748a4.954,4.954,0,0,0,3.2-.878,3.509,3.509,0,0,0,1.067-2.869V380.9h1.471v11.644a4.759,4.759,0,0,1-1.446,3.878,6.5,6.5,0,0,1-4.233,1.2,6.346,6.346,0,0,1-4.2-1.2,4.822,4.822,0,0,1-1.411-3.878V380.9h1.446Z" transform="translate(-515.865 -373.266)" fill="#fc5a69" stroke="#fc5a69" stroke-width="1"/>
  <path id="Path_2576" data-name="Path 2576" d="M655.234,397.182a21.391,21.391,0,0,1-4.173.5,8.628,8.628,0,0,1-2.787-.367,4.464,4.464,0,0,1-1.72-1.031,4.556,4.556,0,0,1-1.042-1.731,15.842,15.842,0,0,1-.712-5.289q0-5.359,1.708-7.09a5.685,5.685,0,0,1,4.268-1.448,22.978,22.978,0,0,1,4.458.5l-.07,1.282a23.152,23.152,0,0,0-3.961-.451,6.6,6.6,0,0,0-2.312.32,3.627,3.627,0,0,0-1.328.854,3.4,3.4,0,0,0-.77,1.483,14.48,14.48,0,0,0-.476,4.032,28.645,28.645,0,0,0,.167,3.616,7.167,7.167,0,0,0,.64,2.169,2.865,2.865,0,0,0,1.4,1.4,6.24,6.24,0,0,0,2.562.428,23.2,23.2,0,0,0,4.08-.451Z" transform="translate(-512.251 -373.328)" fill="#ffb202" stroke="#ffb202" stroke-width="1"/>
  <path id="Path_2577" data-name="Path 2577" d="M652.97,397.381l4.743-16.483h3.439l4.719,16.483h-1.446l-1.328-4.554h-7.352l-1.3,4.554Zm5.811-15.2-2.68,9.345h6.64l-2.68-9.345Z" transform="translate(-508.347 -373.266)" fill="#ffb202" stroke="#ffb202" stroke-width="1"/>
  <path id="Path_2578" data-name="Path 2578" d="M665.219,390.883v6.5h-1.471V380.9H669.8a5.512,5.512,0,0,1,3.853,1.174,4.835,4.835,0,0,1,1.269,3.711q0,3.962-3.177,4.816l3.39,6.782H673.5l-3.249-6.5Zm8.183-5.076a3.138,3.138,0,0,0-3.6-3.607h-4.577v7.376H669.8q3.6,0,3.6-3.769Z" transform="translate(-503.517 -373.266)" fill="#ffb202" stroke="#ffb202" stroke-width="1"/>
  <path id="Path_2579" data-name="Path 2579" d="M673.809,397.381V380.9H683.7v1.327h-8.42v6.121h7v1.3h-7v6.429h8.42v1.3Z" transform="translate(-499.941 -373.266)" fill="#ffb202" stroke="#ffb202" stroke-width="1"/>
  <path id="Path_2580" data-name="Path 2580" d="M554.146,400.49l-4.926-3.245V377.687l1.646,1.538a10.331,10.331,0,0,1,3.28,7.55Z" transform="translate(-549.22 -374.407)" fill="#30dd92"/>
  <path id="Path_2581" data-name="Path 2581" d="M559.076,407.6,554.15,403V375.306l1.956,1.827a9.349,9.349,0,0,1,2.97,6.835Z" transform="translate(-547.468 -375.253)" fill="#ffb202"/>
  <path id="Path_2582" data-name="Path 2582" d="M564.175,400.5l5.025-3.245V377.7l-.347.317a14.406,14.406,0,0,0-4.677,10.625Z" transform="translate(-543.906 -374.403)" fill="#8a88ff"/>
  <path id="Path_2583" data-name="Path 2583" d="M559.167,407.557l5.025-4.6v-27.69l-2.144,1.963a8.871,8.871,0,0,0-2.88,6.542Z" transform="translate(-545.685 -375.267)" fill="#fc5a69"/>
</svg>
