<?xml version="1.0" encoding="UTF-8"?>
<!DOCTYPE svg PUBLIC "-//W3C//DTD SVG 1.1//EN" "http://www.w3.org/Graphics/SVG/1.1/DTD/svg11.dtd">
<svg xmlns="http://www.w3.org/2000/svg" version="1.1" width="81px" height="80px" style="shape-rendering:geometricPrecision; text-rendering:geometricPrecision; image-rendering:optimizeQuality; fill-rule:evenodd; clip-rule:evenodd" xmlns:xlink="http://www.w3.org/1999/xlink">
<g><path style="opacity:0.966" fill="#2a2a2a" d="M 28.5,-0.5 C 31.5,-0.5 34.5,-0.5 37.5,-0.5C 57.1965,5.4315 65.3631,18.7648 62,39.5C 56.8746,56.6056 45.3746,64.1056 27.5,62C 23.9382,61.2611 20.7716,59.7611 18,57.5C 17.5003,64.8258 17.3337,72.1591 17.5,79.5C 11.5,79.5 5.5,79.5 -0.5,79.5C -0.5,53.5 -0.5,27.5 -0.5,1.5C 5.16667,1.5 10.8333,1.5 16.5,1.5C 15.8131,7.59881 17.1465,8.09881 20.5,3C 23.1579,1.52203 25.8245,0.355367 28.5,-0.5 Z M 27.5,16.5 C 42.4764,17.7876 47.3097,25.4542 42,39.5C 35.0335,47.1119 27.7002,47.4453 20,40.5C 14.488,29.8596 16.988,21.8596 27.5,16.5 Z"/></g>
<g><path style="opacity:0.7" fill="#2a2a2a" d="M 80.5,69.5 C 80.5,70.8333 80.5,72.1667 80.5,73.5C 79.5847,76.0857 77.918,78.0857 75.5,79.5C 73.8333,79.5 72.1667,79.5 70.5,79.5C 63.0134,74.7407 62.68,69.5741 69.5,64C 74.5564,63.1948 78.2231,65.0281 80.5,69.5 Z M 69.5,75.5 C 67.1711,73.0041 67.0044,70.3374 69,67.5C 69.4974,70.146 69.6641,72.8127 69.5,75.5 Z M 76.5,68.5 C 78.8549,70.2462 79.0216,72.2462 77,74.5C 75.5585,72.6951 75.3918,70.6951 76.5,68.5 Z M 69.5,75.5 C 70.9311,75.1193 71.7645,74.1193 72,72.5C 76.4465,76.4122 75.6131,77.4122 69.5,75.5 Z"/></g>
</svg>
